# xmcd
#
# Track frame offsets:
#	202
#	16207
#	30430
#	52160
#	83940
#	98632
#	125462
#	143922
#
# Disc length: 2387 seconds
#
# Revision: 2
# Processed by: cddbd v1.4PL0 Copyright (c) Steve Scherf et al.
# Submitted via: EasyCDDAExtractor 5.0.6
#
DISCID=61095108
DTITLE=Junior Wells, Buddy Guy, Otis Spann - Southside Blues Jam
DYEAR=1973
DGENRE=Blues
TTITLE0=Stop Breaking Down
TTITLE1=I Could Have Had Religion
TTITLE2=I Just Want to Make Love to You
TTITLE3=Baby, Please Send Me Your Love
TTITLE4=You Say You Love Me
TTITLE5=Blues for Mayor Daley
TTITLE6=I Wish I Knew What I Know Now
TTITLE7=Trouble Don't Last Always
EXTD=
EXTT0=
EXTT1=
EXTT2=
EXTT3=
EXTT4=
EXTT5=
EXTT6=
EXTT7=
PLAYORDER=
